<?xml version="1.0" standalone="no"?><!DOCTYPE svg PUBLIC "-//W3C//DTD SVG 1.1//EN" "http://www.w3.org/Graphics/SVG/1.1/DTD/svg11.dtd"><svg t="1548399931491" class="icon" style="" viewBox="0 0 1075 1024" version="1.1" xmlns="http://www.w3.org/2000/svg" p-id="3996" xmlns:xlink="http://www.w3.org/1999/xlink" width="209.9609375" height="200"><defs><style type="text/css"></style></defs><path d="M908.398327 149.887623h-198.077844l93.34218-95.219995s14.284054-19.748707-7.616756-44.751076c0 0-19.516618-21.647621-45.721633-0.949457l-141.869985 140.920528h-137.143799L327.562689 7.06818s-22.34389-14.220757-42.852162 1.898915c0 0-18.989141 13.819875-11.414584 40.088187l95.219995 103.701811-228.544867-0.949457S21.436631 162.758041 0 323.195187v468.398821s8.587312 149.022562 149.50784 172.337008h60.934045s-2.384192 55.701481 59.077329 59.077329c0 0 53.317289 6.20312 61.883502-59.077329l414.216471 0.949457s3.797828 56.672038 60.934045 59.077329c0 0 59.077329-0.464179 59.984588-60.934045h66.651886s140.034368-24.474893 140.034368-193.246162l1.920014-426.580513s-4.87388-188.308986-166.745761-193.309459z m-13.334597 704.708137H196.157831c-72.833907 2.86947-73.319185-74.268642-73.319185-74.268642v-450.464633c7.152577-71.88445 59.077329-70.470814 59.077329-70.470813h670.295592c98.553644-12.364041 97.055612 68.5719 97.055612 68.571899l0.949457 454.178065c-2.299796 65.702429-55.152906 72.369728-55.152906 72.369727z" p-id="3997"></path><path d="M418.0143 408.899512L188.541075 454.600045l18.081883 87.603239 227.57431-44.751076zM661.792677 408.899512l-18.081882 89.502153 226.624853 42.852162 17.216821-88.447201zM504.668082 677.405971s-19.516618 33.758474-52.367833 6.667299c0 0-16.182968-10.000948-20.951352-23.799724l-39.033235 24.749181s52.367832 93.78526 133.303772 37.134321c0 0 9.51567-15.233511 21.90081 0 0 0 66.166608 62.36878 134.25323-37.134321l-37.134321-25.698638s-20.951353 27.597552-29.538665 30.467022c0 0-16.182968 15.718789-40.953248-4.768384 0 0-19.980797-20.466075-28.547009-40.932149 0 0-9.051491-20.001896-18.102982 0z" p-id="3998"></path></svg>