<?xml version="1.0" standalone="no"?><!DOCTYPE svg PUBLIC "-//W3C//DTD SVG 1.1//EN" "http://www.w3.org/Graphics/SVG/1.1/DTD/svg11.dtd"><svg t="1548398735979" class="icon" style="" viewBox="0 0 2274 1024" version="1.1" xmlns="http://www.w3.org/2000/svg" p-id="3768" xmlns:xlink="http://www.w3.org/1999/xlink" width="444.140625" height="200"><defs><style type="text/css"></style></defs><path d="M742.772437 467.275726c14.20215-1.420215 14.20215 8.52129 8.52129-42.60645-1.420215-12.781935-2.84043-26.984085-4.260645-39.766019-2.84043-24.143655-4.260645-56.808599-8.52129-79.532039-9.941505-2.84043-19.88301-2.84043-31.244729-2.84043-19.88301 0-14.20215 1.420215-29.824515 2.84043L695.905343 453.073576c2.84043 24.143655-8.52129 18.462795 46.867094 14.20215zM586.548789 715.813348c-2.84043-1.420215-4.260645-1.420215-7.101075-2.84043s-4.260645-2.84043-5.68086-4.260645c-7.101075-4.260645-18.462795-8.52129-26.984085-12.781935-49.707524-24.143655-132.079994-42.60645-188.888593-51.127739-36.92559-5.68086-75.271394-7.101075-113.617199-4.260645-7.101075 0-11.36172 1.420215-18.462794 1.420215-5.68086 0-12.781935 2.84043-17.04258 2.84043 0-15.622365-8.52129-90.893759-11.36172-116.457629l-9.941505-117.877844c0-25.56387-5.68086-53.968169-4.260645-79.532039 0-7.101075-1.420215-12.781935-1.420215-19.883009l-1.420215-41.186235c0-8.52129-1.420215-12.781935-1.420215-19.88301v-42.606449c0-15.622365-1.420215-26.984085-1.420215-41.186235 0-26.984085 1.420215-53.968169 1.420215-83.792684 0-26.984085 2.84043-53.968169 2.84043-82.372469C150.542788-1.395219 39.76602 58.25381 0 68.195315c0 5.68086 8.52129 46.867095 11.36172 56.808599 11.36172 56.808599 19.88301 113.617199 29.824515 171.846014C56.808599 394.844762 68.170319 492.839596 80.952254 592.254645c7.101075 58.228814 12.781935 123.558704 19.88301 181.787518 2.84043 19.88301 2.84043 39.76602 5.68086 61.069244 2.84043 19.88301 4.260645 41.186235 5.68086 61.069244 2.84043 26.984085 7.101075 65.329889 8.52129 92.313974 0 9.941505 2.84043 21.303225 2.84043 32.664945l2.84043 1.420215H203.090743c2.84043-1.420215 31.24473-2.84043 36.925589-2.84043 86.633114-8.52129 147.702358-19.88301 230.074828-51.127739 19.88301-7.101075 35.505375-15.622365 55.388384-25.56387 42.60645-19.88301 107.936339-69.590534 123.558704-116.457629 4.260645-12.781935 4.260645-19.88301 4.260645-35.505375 0-34.08516-39.76602-62.489459-66.750104-75.271394z m-134.920424 103.675694l-26.984084 21.303225c-11.36172 8.52129-105.095909 79.532039-110.776769 80.952254-1.420215-12.781935-4.260645-28.4043-5.68086-42.606449l-11.36172-85.2129c-1.420215-7.101075-1.420215-15.622365-2.84043-21.303224-1.420215-7.101075-2.84043-14.20215-2.84043-21.303225 0-2.84043 1.420215-1.420215 4.260645-1.420215 17.04258 0 149.122573 53.968169 163.324723 61.069244-1.420215 2.84043-4.260645 5.68086-7.101075 8.52129zM627.735023 460.174651c1.420215 4.260645 2.84043 17.04258 2.84043 19.88301l1.420215 2.84043c7.101075 0 1.420215 0 2.84043-1.420215 7.101075-1.420215 12.781935-2.84043 19.88301-4.260645 5.68086-1.420215 17.04258-2.84043 21.303225-5.68086 0-24.143655-12.781935-144.861928-19.88301-157.643864-18.462795-1.420215-36.92559 4.260645-55.388384 5.68086 0 8.52129 4.260645 29.824515 5.68086 39.76602l21.303224 100.835264zM2265.242901 485.738521v-140.601284-12.781935c1.420215-7.101075 1.420215-5.68086-7.101075-7.101075-18.462795-2.84043-34.08516-2.84043-53.968169-2.84043l4.260645 161.904509 56.808599 1.420215zM1829.236901 312.472292c2.84043 12.781935 2.84043 26.984085 4.260645 39.76602l14.20215 119.298059c7.101075 0 21.303225-1.420215 26.984084-2.84043 8.52129-1.420215 19.88301-1.420215 29.824515-1.420215 0-18.462795-9.941505-103.675694-12.781935-134.920424 0-4.260645-1.420215-14.20215-1.420215-18.462795v-8.521289h-5.68086c-15.622365-1.420215-34.08516-2.84043-49.707524 0h-5.68086c0 1.420215-1.420215 1.420215 0 2.84043v4.260644zM796.740607 782.563453c-4.260645-36.92559-25.56387-252.798267-34.08516-261.319558-4.260645-4.260645-35.505375-2.84043-41.186235-2.84043-12.781935 0-73.851179 11.36172-83.792684 15.622365 0 8.52129 7.101075 42.60645 8.52129 52.547955 2.84043 18.462795 5.68086 34.08516 9.941505 52.547954l41.186235 208.771603c2.84043 12.781935 19.88301 95.154404 19.883009 105.095909l95.154404-9.941505c1.420215-4.260645-8.52129-93.734189-9.941504-107.936339-1.420215-17.04258-2.84043-35.505375-5.68086-52.547954zM1782.369806 482.898091c8.52129 2.84043 2.84043 0 4.260645 0 12.781935-4.260645 28.4043-5.68086 42.60645-9.941505 0-29.824515-4.260645-55.388384-7.101075-80.952254-1.420215-12.781935-8.52129-71.010749-12.781935-76.69161-9.941505 0-18.462795 1.420215-26.984085 2.84043l-28.404299 4.260645 26.984084 156.223649 1.420215 4.260645zM1112.028333 485.738521V330.935087c0-7.101075-1.420215-5.68086-8.52129-7.101075-17.04258-1.420215-34.08516-2.84043-53.968169-2.84043l7.101075 161.904509 55.388384 2.84043zM1725.561207 708.712273c-17.04258-8.52129-38.345805-18.462795-55.388385-24.143654-71.010749-25.56387-159.064078-45.44688-232.915257-45.44688-14.20215 0-26.984085 0-39.76602 1.420215l-35.505374 2.84043c-7.101075-49.707524-9.941505-106.516124-15.622365-154.803433-2.84043-25.56387-2.84043-52.547954-5.68086-78.111825l-2.84043-39.766019c-1.420215-29.824515-4.260645-51.127739-2.84043-80.952254 0-8.52129-1.420215-11.36172-1.420215-19.88301v-21.303225c0-8.52129-1.420215-12.781935-1.420215-19.88301V80.97725c1.420215-14.20215 0-28.4043 1.420215-41.186235L1335.002086 0.024996c-18.462795 0-36.92559 8.52129-49.707525 14.20215-38.345805 15.622365-75.271394 32.664945-112.196983 46.867094-4.260645 1.420215-7.101075 2.84043-11.36172 4.260645l-7.101075 2.84043c-2.84043 1.420215-1.420215 0-2.84043 1.420215l11.36172 56.808599c18.462795 96.574619 34.08516 193.149238 46.867094 289.723857 5.68086 39.76602 11.36172 79.532039 15.622365 119.298059 4.260645 39.76602 11.36172 80.952254 14.20215 120.718274 4.260645 48.287309 12.781935 105.095909 17.04258 154.803433 1.420215 11.36172 1.420215 19.88301 2.84043 31.24473 1.420215 19.88301 4.260645 41.186235 5.68086 61.069244 1.420215 26.984085 7.101075 63.909674 8.52129 92.313974 0 5.68086 1.420215 9.941505 1.420215 15.622365 0 7.101075 0 8.52129 4.260645 12.781935h75.271394c1.420215-1.420215 32.664945-2.84043 36.925589-2.84043 75.271394-5.68086 163.324723-22.72344 230.074828-51.127739 59.649029-25.56387 157.643863-73.851179 178.947088-142.021499 7.101075-24.143655 8.52129-46.867095-4.260645-65.329889-18.462795-24.143655-46.867095-41.186235-71.010749-53.96817z m-208.771603 176.106658l-49.707524 35.505375c-2.84043 0-2.84043-4.260645-2.84043-8.52129l-8.52129-63.909674c-1.420215-17.04258-4.260645-32.664945-7.101075-49.707525l-7.101075-51.127739c14.20215 1.420215 31.24473 9.941505 44.026664 12.781935l124.978919 48.287309c-7.101075 15.622365-76.691609 63.909674-93.734189 76.691609zM2100.497963 815.228397c-1.420215-15.622365-4.260645-34.08516-4.260645-49.707524-1.420215-15.622365-1.420215-34.08516-4.260645-49.707525l-12.781935-147.702358c-1.420215-8.52129-1.420215-17.04258-1.420215-25.56387l-17.04258-224.393968c0-8.52129 0-17.04258-1.420215-25.563869 0-5.68086-1.420215-18.462795-2.84043-25.56387l-9.941505-150.542788c-14.20215-7.101075-34.08516-2.84043-45.446879-2.84043l-80.952254 11.361719c1.420215 7.101075 2.84043 17.04258 4.260645 24.143655 1.420215 8.52129 2.84043 15.622365 4.260645 24.143655l8.52129 46.867094c17.04258 99.415049 26.984085 190.308808 39.766019 289.723857l11.36172 99.415049c4.260645 45.44688 12.781935 107.936339 15.622365 150.542789 1.420215 15.622365 4.260645 34.08516 4.260645 49.707524 1.420215 29.824515 8.52129 71.010749 8.52129 100.835264l90.893759 4.260645c0-14.20215-2.84043-35.505375-4.260645-49.707524 0-17.04258-1.420215-34.08516-2.84043-49.707525zM2270.923761 768.361303l-1.420215-115.037414c0-14.20215-1.420215-25.56387-1.420215-36.92559 0-25.56387-1.420215-48.287309-2.84043-75.271394-24.143655-15.622365-97.994834-5.68086-126.399134-2.84043-1.420215 9.941505 2.84043 44.026665 2.84043 55.388385 1.420215 17.04258 2.84043 35.505375 4.260645 53.968169 2.84043 34.08516 7.101075 69.590534 9.941505 103.675694l9.941505 103.675694c2.84043 17.04258 2.84043 35.505375 4.260645 52.547954l4.260645 52.547955v5.68086c2.84043 1.420215 1.420215 1.420215 4.260645 1.420215 7.101075 0 2.84043 0 4.260645-1.420215l86.633114-1.420215v-117.877844c-1.420215-7.101075 1.420215-66.750104 1.420215-78.111824zM2184.290647 482.898091l1.420215-2.84043v-2.84043c1.420215-11.36172 1.420215-72.430964 1.420215-88.053329 0-4.260645-1.420215-9.941505-1.420215-15.622365l-1.420215-42.60645c0-7.101075 2.84043-5.68086-19.88301-5.68086-4.260645 0-5.68086 1.420215-12.781935 1.420215-5.68086 0-8.52129 1.420215-12.781935 1.420215h-11.361719c0 39.76602 4.260645 85.212899 8.52129 124.978919 1.420215 11.36172 0 25.56387 2.840429 35.505375l45.44688-5.68086zM1932.912595 646.222814c-2.84043-19.88301-12.781935-117.877844-19.88301-124.978919-11.36172-5.68086-49.707524-1.420215-63.909674 0-9.941505 1.420215-18.462795 2.84043-29.824515 5.68086-5.68086 1.420215-9.941505 1.420215-14.20215 2.84043-2.84043 1.420215-9.941505 1.420215-12.781935 2.84043-5.68086 1.420215-2.84043-1.420215-4.260645 2.84043 0 5.68086 0 0 1.420215 2.84043 1.420215 17.04258 5.68086 35.505375 8.52129 52.547955l29.824515 156.223648c7.101075 34.08516 14.20215 69.590534 19.88301 103.675694 4.260645 21.303225 15.622365 89.473544 19.883009 103.675694 9.941505-1.420215 21.303225-2.84043 32.664945-4.260645l49.707524-4.260645c5.68086-1.420215 11.36172 1.420215 12.781935-4.260645l-12.781935-130.659779c-1.420215-44.026665-11.36172-120.718274-17.042579-164.744938zM944.442965 764.100658c-5.68086-49.707524-7.101075-99.415049-12.781935-147.702359-1.420215-8.52129 0-17.04258-1.420215-25.563869-2.84043-22.72344-4.260645-51.127739-5.68086-73.85118l-5.68086-75.271394c-2.84043-38.345805-8.52129-88.053329-9.941505-123.558704 0-15.622365-2.84043-34.08516-4.260645-51.127739-1.420215-31.24473-5.68086-68.170319-7.101074-99.415049 0-15.622365-2.84043-34.08516-4.260645-49.707524-22.72344-5.68086-39.76602-2.84043-62.48946-1.420215-22.72344 1.420215-41.186235 5.68086-61.069244 8.521289-1.420215 5.68086 5.68086 39.76602 7.101075 48.28731 19.88301 115.037414 34.08516 221.553538 48.287309 338.011166 4.260645 32.664945 7.101075 66.750104 11.36172 99.415049 2.84043 17.04258 4.260645 34.08516 5.68086 49.707525l5.68086 49.707524c4.260645 32.664945 5.68086 68.170319 9.941505 100.835264l5.68086 75.271394c0 7.101075 1.420215 18.462795 2.84043 25.56387 8.52129 0 14.20215 1.420215 22.72344 1.420215 21.303225 0 46.867095 2.84043 68.170319 4.260645l-8.52129-99.415049c-1.420215-19.88301-1.420215-36.92559-4.260645-53.968169zM999.831349 485.738521l34.08516-2.84043c2.84043-7.101075 4.260645-68.170319 1.420215-79.532039l-1.420215-59.64903c0-8.52129-1.420215-12.781935-1.420215-19.88301-19.88301 0-35.505375 2.84043-55.388384 2.84043l8.52129 126.399134c0 5.68086 0 12.781935 1.420215 18.462795v15.622365c2.84043 1.420215 2.84043 1.420215 5.68086 1.420215l7.101074-2.84043zM1120.549623 748.478293c0-9.941505-1.420215-15.622365-1.420215-25.56387l-1.420215-79.532039c0-11.36172 0-97.994834-5.68086-103.675694-14.20215-14.20215-102.255479-4.260645-123.558703-2.84043-1.420215 9.941505 1.420215 45.44688 2.84043 55.388385 1.420215 17.04258 1.420215 34.08516 4.260645 51.127739 4.260645 28.4043 5.68086 73.851179 9.941504 102.255479 4.260645 34.08516 5.68086 68.170319 9.941505 102.255479l8.52129 100.835264 1.420215 15.622365c1.420215 0 1.420215 1.420215 4.260645 1.420215 8.52129 0 1.420215 0 4.260645-1.420215l86.633114-1.420215c2.84043-17.04258-1.420215-36.92559-1.420215-52.547955l1.420215-161.904508z" p-id="3769"></path></svg>